<svg width="26" height="26" viewBox="0 0 26 26" fill="none" xmlns="http://www.w3.org/2000/svg">
<path d="M25 13C25 10.0769 23.933 7.25426 21.9994 5.06206C20.0658 2.86986 17.3984 1.45884 14.4982 1.09389C11.5979 0.728942 8.66418 1.43517 6.24772 3.07998C3.83126 4.7248 2.09827 7.19509 1.37409 10.0271C0.649906 12.8591 0.984334 15.858 2.31459 18.461C3.64485 21.0639 5.87945 23.0917 8.59888 24.1638C11.3183 25.2359 14.3356 25.2785 17.0842 24.2836C19.8328 23.2887 22.1238 21.3248 23.527 18.7605L23.391 18.6861C22.0059 21.2173 19.7445 23.1558 17.0314 24.1379C14.3183 25.1199 11.34 25.0778 8.65572 24.0196C5.97141 22.9614 3.76567 20.9597 2.45259 18.3904C1.13952 15.8211 0.809411 12.8609 1.52424 10.0655C2.23907 7.27006 3.94968 4.83168 6.33493 3.2081C8.72018 1.58453 11.616 0.887427 14.4788 1.24766C17.3416 1.60789 19.9745 3.00069 21.8832 5.16458C23.7918 7.32846 24.845 10.1146 24.845 13H25Z" fill="white" stroke="#4078D7" stroke-linecap="round" stroke-linejoin="round"/>
</svg>
