<svg width="62" height="62" viewBox="0 0 62 62" fill="none" xmlns="http://www.w3.org/2000/svg">
<path opacity="0.5" d="M31 1.66577C47.1746 1.66577 60.3342 14.8254 60.3342 31C60.3342 47.1746 47.1746 60.3342 31 60.3342C14.8254 60.3342 1.66577 47.1746 1.66577 31C1.66577 14.8254 14.8254 1.66577 31 1.66577ZM31 0C13.8792 0 0 13.8792 0 31C0 48.1208 13.8792 62 31 62C48.1208 62 62 48.1208 62 31C61.9967 13.8792 48.1175 0 31 0Z" fill="#D9BFD7"/>
<path d="M30.9999 59.1483C46.5476 59.1483 59.1514 46.5444 59.1514 30.9967C59.1514 15.4491 46.5476 2.84521 30.9999 2.84521C15.4523 2.84521 2.84839 15.4491 2.84839 30.9967C2.84839 46.5444 15.4523 59.1483 30.9999 59.1483Z" fill="#D2A4CE"/>
<path opacity="0.07" d="M5.39377 33.5421C5.39377 17.9938 17.997 5.3906 33.5453 5.3906C40.6715 5.3906 47.178 8.03918 52.1386 12.4068C46.9781 6.54665 39.4221 2.84863 31.0033 2.84863C15.455 2.84863 2.85181 15.4519 2.85181 31.0002C2.85181 39.4223 6.54982 46.9782 12.41 52.1355C8.04235 47.1748 5.39377 40.6683 5.39377 33.5421Z" fill="black"/>
<path d="M19.8932 30.1729C19.8932 30.1729 21.1225 37.6588 15.6721 43.4057C35.0517 51.1982 44.49 44.1287 44.49 44.1287C44.49 44.1287 41.7148 36.6827 41.908 30.1729H19.8932Z" fill="#FFCC65"/>
<path opacity="0.24" d="M19.8931 30.1733C19.8931 30.1733 24.6572 37.1395 25.4401 42.5799C29.0681 45.6816 35.8645 42.9397 35.8645 42.9397C35.8645 42.9397 35.9378 39.6848 41.9079 30.1699H19.8931V30.1733Z" fill="black"/>
<path d="M22.8847 25.9185C23.3045 28.014 22.6149 30.0363 21.3389 30.4327C20.0629 30.8292 18.6903 29.4532 18.2672 27.3577C17.8474 25.2622 18.5371 23.2399 19.813 22.8435C21.089 22.447 22.465 23.8229 22.8847 25.9185Z" fill="white"/>
<path d="M38.9194 25.9185C38.4997 28.014 39.1893 30.0363 40.4653 30.4327C41.7412 30.8292 43.1138 29.4532 43.5369 27.3577C43.9567 25.2622 43.2671 23.2399 41.9911 22.8435C40.7151 22.447 39.3392 23.8229 38.9194 25.9185Z" fill="#F4F1EF"/>
<path opacity="0.5" d="M49.3572 52.1679C49.3239 52.0013 49.2839 51.8347 49.2339 51.6715C49.1373 51.345 49.0107 51.0285 48.8575 50.7286C48.1645 49.3727 46.9218 48.3099 45.346 47.8868L40.0389 46.4709C39.829 46.4143 39.6291 46.3477 39.4292 46.271C39.4192 46.2677 39.4126 46.2644 39.4026 46.261C42.8074 45.3915 44.4898 44.1289 44.4898 44.1289C44.4898 44.1289 43.8235 42.3365 43.1639 39.7445C44.8396 42.4664 46.572 43.4059 46.572 43.4059C43.3238 39.4347 41.9079 30.173 41.9079 30.173C42.6475 29.6766 43.2738 28.6572 43.5337 27.3612C43.9268 25.4022 43.3471 23.5066 42.2277 22.9436C42.2277 22.9436 43.2305 17.9396 40.5486 14.2549C38.3898 11.2932 35.1382 9.08768 32.0465 9.00439V61.6961H47.9746L49.3639 54.2601C49.4305 53.9036 49.4605 53.5505 49.4572 53.1973C49.4572 52.8508 49.4238 52.5044 49.3572 52.1679Z" fill="#51504F"/>
<path d="M40.0391 46.4674C37.3638 45.7544 35.4515 43.4024 35.295 40.6372L34.7752 31.4888H26.2698L25.7268 41.0203C25.5669 43.8121 23.6179 46.1775 20.906 46.8672L16.7283 47.9266C13.8931 48.6462 12.1074 51.4447 12.6438 54.3198L14.0197 61.6925H47.9748L49.3641 54.2565C49.8971 51.4081 48.1447 48.6296 45.3429 47.8833L40.0391 46.4674Z" fill="#F4F1EF"/>
<path d="M42.1048 23.6632C42.1048 31.4524 36.098 40.764 31.0008 40.764C25.9035 40.764 19.8967 31.4524 19.8967 23.6632C19.8967 15.8741 24.8674 11.2266 31.0008 11.2266C37.1341 11.2266 42.1048 15.8741 42.1048 23.6632Z" fill="white"/>
<path d="M27.4926 10.8101C25.4503 11.0633 22.5052 11.2232 20.5763 15.2811C18.554 19.5388 19.4569 23.0069 19.4569 23.0069C21.719 22.8403 22.0455 26.6383 22.0455 26.6383C22.0455 26.6383 23.1549 25.3523 23.1949 23.9997C24.874 23.8331 31.8002 22.194 33.8292 17.6131C38.7931 17.6398 39.2862 24.5561 39.2429 25.4423L39.9092 26.6383C39.9092 26.6383 40.5589 22.9336 42.228 22.9403C42.228 22.9403 43.2308 17.9363 40.5455 14.2516C37.2606 9.74069 31.4338 6.98551 27.4926 10.8101Z" fill="#FFCC65"/>
<path d="M45.3463 47.8868L40.0392 46.4709C39.5794 46.3477 39.1463 46.1777 38.7365 45.9645L38.9398 45.658L35.8681 42.9461L30.8375 47.9768L25.4437 42.583L22.5319 45.6247L22.8251 46.0278C22.2487 46.4043 21.6024 46.6908 20.9095 46.8674L16.7317 47.9268C13.8966 48.6464 12.1109 51.4449 12.6472 54.32L14.0232 61.6927H47.9782L49.3675 54.2567C49.8972 51.4116 48.1448 48.6331 45.3463 47.8868Z" fill="white"/>
<path opacity="0.1" d="M24.5042 48.6799L28.6686 53.6506L30.8374 47.9736L29.3349 56.066L24.5042 48.6799Z" fill="black"/>
<path opacity="0.1" d="M37.1672 48.6799L33.0028 53.6506L30.834 47.9736L32.3365 56.066L37.1672 48.6799Z" fill="black"/>
<path d="M22.8252 46.0312C22.2489 46.4077 21.6025 46.6942 20.9096 46.8708L16.7318 47.9302C13.8967 48.6498 12.111 51.4483 12.6474 54.3235L14.0233 61.6962H29.6982L22.8252 46.0312Z" fill="#D6BBB8"/>
<path d="M45.3463 47.8872L40.0391 46.4712C39.5794 46.348 39.1463 46.1781 38.7365 45.9648L32.0468 61.6997H47.9749L49.3641 54.2637C49.8972 51.4119 48.1448 48.6334 45.3463 47.8872Z" fill="#D6BBB8"/>
<path opacity="0.24" d="M18.5273 49.5425L22.6751 58.451L24.9472 58.0079L23.558 60.6632L23.9478 61.6959H24.8373L24.5041 60.6632L25.92 57.285L23.0083 57.7847L18.5273 49.5425Z" fill="black"/>
<path opacity="0.24" d="M42.9109 49.5425L38.7598 58.451L36.491 58.0079L37.8769 60.6632L37.4905 61.6959H36.6009L36.9341 60.6632L35.5182 57.285L38.4266 57.7847L42.9109 49.5425Z" fill="black"/>
<path opacity="0.24" d="M28.1122 25.499C32.7497 21.751 33.6858 17.8765 33.6858 17.8765C33.6858 17.8765 22.915 27.7512 18.2675 27.3614C18.2675 27.358 24.2176 28.6473 28.1122 25.499Z" fill="black"/>
<path d="M41.9115 30.1729C41.9115 30.1729 43.3274 39.4345 46.5757 43.4057C46.5757 43.4057 42.4146 41.1569 40.7555 33.4944L41.9115 30.1729Z" fill="#FFCC65"/>
<path d="M33.8323 17.6133C33.8323 17.6133 27.9188 29.0072 17.3412 27.3847C17.3412 27.3847 23.348 24.4163 23.0115 21.0847L33.8323 17.6133Z" fill="#FFCC65"/>
<path d="M32.7498 17.1702C32.7498 17.1702 36.7076 19.7921 37.7071 23.2503C37.7071 23.2503 37.2906 18.193 34.1523 16.334L32.7498 17.1702Z" fill="#FFCC65"/>
</svg>
