<svg width="19" height="19" viewBox="0 0 19 19" fill="none" xmlns="http://www.w3.org/2000/svg">
<path d="M18.5483 3.47339C18.5483 2.91769 18.1043 2.46683 17.5579 2.46683H14.1529C13.6065 2.46683 13.1625 2.91769 13.1625 3.47339C13.1625 3.96878 13.5149 4.37785 13.9777 4.46213V12.7475C12.6801 11.2154 10.5 8.65486 10.0546 8.13342V2.42298C10.469 2.30375 10.7742 1.91867 10.7742 1.45959C10.7742 0.903891 10.3302 0.45166 9.78379 0.45166H6.07087C5.52448 0.45166 5.08049 0.903891 5.08049 1.45959C5.08049 1.91867 5.38569 2.30375 5.80071 2.42298V8.13342C5.24488 8.78504 1.98067 12.6167 1.11291 13.6527C0.510599 14.3715 0.311176 15.058 0.549675 15.585C0.710022 15.9371 1.13649 16.3585 2.25623 16.3585H13.5991C13.7352 16.3585 13.8619 16.3517 13.9784 16.34V16.6388C13.9784 17.6906 14.8206 18.5484 15.8561 18.5484C16.8916 18.5484 17.7331 17.6906 17.7331 16.6388V4.46213C18.196 4.37785 18.5483 3.96878 18.5483 3.47339ZM6.38079 8.47876C6.43267 8.41709 6.46096 8.33829 6.46096 8.25813V7.50304H7.53421C7.71679 7.50304 7.86434 7.35298 7.86434 7.16729C7.86434 6.9816 7.71612 6.83154 7.53421 6.83154H6.46096V5.65643H7.53421C7.71679 5.65643 7.86434 5.50637 7.86434 5.32068C7.86434 5.13499 7.71612 4.98493 7.53421 4.98493H6.46096V3.80913H7.53421C7.71679 3.80913 7.86434 3.65907 7.86434 3.47339C7.86434 3.28838 7.71612 3.13764 7.53421 3.13764H6.46096V2.46683H9.39437V8.25744C9.39437 8.33761 9.42267 8.41641 9.47522 8.47807C9.47522 8.47807 9.64096 8.67336 9.90506 8.98238H5.95028C6.21438 8.67404 6.38079 8.47876 6.38079 8.47876ZM6.07087 1.12315H9.78514C9.96704 1.12315 10.1153 1.27321 10.1153 1.4589C10.1153 1.64391 9.96637 1.79465 9.78514 1.79465H6.07087C5.88897 1.79465 5.74075 1.64322 5.74075 1.4589C5.74007 1.27321 5.88897 1.12315 6.07087 1.12315ZM2.2569 15.6864C1.66402 15.6864 1.26046 15.5459 1.14997 15.302C1.03004 15.0382 1.20858 14.5729 1.61551 14.0871C2.25286 13.3272 4.17905 11.0626 5.37828 9.65456H10.4771C11.6756 11.0626 13.6025 13.3265 14.2392 14.0871C14.6461 14.5729 14.8253 15.0388 14.7047 15.302C14.5949 15.5452 14.1906 15.6864 13.5984 15.6864H2.2569ZM15.8561 17.8763C15.1851 17.8763 14.638 17.3206 14.638 16.6381V16.1831C15.0146 16.0276 15.2093 15.7953 15.305 15.585C15.5435 15.0574 15.3447 14.3715 14.7418 13.6527C14.7121 13.6177 14.6724 13.5712 14.638 13.5294V11.6786H15.7746C15.9572 11.6786 16.1047 11.5286 16.1047 11.3429C16.1047 11.1579 15.9572 11.0071 15.7746 11.0071H14.638V9.81216H15.7746C15.9572 9.81216 16.1047 9.66073 16.1047 9.47641C16.1047 9.29072 15.9572 9.14066 15.7746 9.14066H14.638V7.96486H15.7746C15.9572 7.96486 16.1047 7.81343 16.1047 7.62911C16.1047 7.44343 15.9572 7.29337 15.7746 7.29337H14.638V6.11825H15.7746C15.9572 6.11825 16.1047 5.96819 16.1047 5.7825C16.1047 5.59682 15.9572 5.44676 15.7746 5.44676H14.638V4.48131H17.0728V16.6381C17.0735 17.3206 16.5271 17.8763 15.8561 17.8763ZM17.5579 3.80913H14.1529C13.971 3.80913 13.8235 3.65907 13.8235 3.47339C13.8235 3.28838 13.9717 3.13764 14.1529 3.13764H17.5579C17.7398 3.13764 17.8881 3.28907 17.8881 3.47339C17.8887 3.65976 17.7398 3.80913 17.5579 3.80913Z" fill="#4078D7"/>
</svg>
