<svg width="20" height="18" viewBox="0 0 20 18" fill="none" xmlns="http://www.w3.org/2000/svg">
<path d="M4.60941 8.53275C4.60941 8.86106 4.34296 9.12751 4.01465 9.12751H0.594763C0.266454 9.12751 0 8.86106 0 8.53275C0 8.20444 0.266454 7.93799 0.594763 7.93799H4.01465C4.34296 7.93799 4.60941 8.20444 4.60941 8.53275Z" fill="#2CB466"/>
<path d="M7.27633 16.5761C7.37625 16.889 7.20258 17.2232 6.88854 17.322C6.57451 17.4219 6.24144 17.247 6.14271 16.9342L3.54241 8.71098C3.44249 8.39932 3.61616 8.06388 3.929 7.96515C4.24304 7.86523 4.57611 8.04009 4.67484 8.35293L7.27633 16.5761Z" fill="#2CB466"/>
<path d="M7.34182 16.9458C7.23595 17.2574 6.89812 17.4228 6.58766 17.3181C6.276 17.2134 6.10947 16.8756 6.21533 16.5639L11.6919 0.404212C11.7966 0.0925561 12.1332 -0.072788 12.4449 0.0318902C12.7565 0.137758 12.9231 0.475583 12.8184 0.786049L7.34182 16.9458Z" fill="#2CB466"/>
<path d="M19.08 0.594763C19.08 0.923072 18.8148 1.18953 18.4853 1.18953H12.4187C12.0892 1.18953 11.8215 0.923072 11.8215 0.594763C11.8215 0.266454 12.0892 0 12.4187 0H18.4853C18.8148 0.00118953 19.08 0.266454 19.08 0.594763Z" fill="#2CB466"/>
<path d="M17.5967 16.362C17.8156 16.607 17.7894 16.9829 17.5432 17.2006C17.2969 17.4195 16.9234 17.3945 16.7045 17.1483L10.9996 10.682C10.7807 10.4358 10.8045 10.0599 11.0507 9.8422C11.297 9.62333 11.6752 9.64831 11.8917 9.89573L17.5967 16.362Z" fill="#2CB466"/>
<path d="M10.9995 16.362C10.7806 16.607 10.8068 16.9829 11.053 17.2006C11.2993 17.4195 11.6728 17.3945 11.8917 17.1483L17.5978 10.6808C17.8167 10.4358 17.7929 10.0599 17.5467 9.8422C17.3004 9.62333 16.9222 9.64831 16.7057 9.89573L10.9995 16.362Z" fill="#2CB466"/>
</svg>
