<svg width="12" height="19" viewBox="0 0 12 19" fill="none" xmlns="http://www.w3.org/2000/svg">
<path d="M5.88095 0C2.63814 0 0 2.66754 0 5.94649V7.91116V8.82811V11.5261C0 11.6563 0.104456 11.7619 0.233161 11.7619H2.52312C2.65182 11.7619 2.75628 11.6563 2.75628 11.5261V8.19439V7.91085V6.48151C2.75628 4.7394 4.15805 3.32201 5.88095 3.32201C7.60386 3.32201 9.00563 4.7394 9.00563 6.48151V7.91085V8.19439V11.5258C9.00563 11.656 9.11008 11.7616 9.23879 11.7616H11.5287C11.6574 11.7616 11.7619 11.656 11.7619 11.5258V8.82779V7.91085V5.94618C11.7619 2.66754 9.12376 0 5.88095 0ZM2.28996 11.2901H0.466323V8.82779V8.14661H2.28996V8.19439V11.2901ZM5.88095 2.85049C3.90095 2.85049 2.28996 4.47944 2.28996 6.48151V7.67509H0.466323V5.94618C0.466323 2.9272 2.89524 0.471206 5.88095 0.471206C8.86666 0.471206 11.2956 2.9272 11.2956 5.94618V7.67509H9.47195V6.48151C9.47195 4.47944 7.86096 2.85049 5.88095 2.85049ZM11.2956 11.2901H9.47195V8.19439V8.14661H11.2956V8.82779V11.2901Z" fill="#D73140"/>
<path d="M8.61269 13.1763H6.31149L6.70825 10.3938C6.72031 10.2877 6.68699 10.1834 6.61398 10.1004C6.54098 10.0174 6.43655 9.96526 6.3207 9.95419C6.31245 9.9536 6.28356 9.95215 6.27499 9.95215C6.1274 9.95215 5.9906 10.02 5.90267 10.1447L2.77844 15.1682C2.65307 15.3556 2.71687 15.6011 2.92128 15.7174C2.98952 15.7558 3.06792 15.7759 3.14854 15.7759H5.41863L5.10345 18.5695C5.09456 18.6758 5.13138 18.7795 5.20724 18.8605C5.2831 18.9415 5.38879 18.9904 5.50465 18.9986C5.51068 18.9989 5.53194 18.9998 5.53798 18.9998C5.68843 18.9998 5.82586 18.9301 5.9122 18.804L8.98596 13.7802C9.06626 13.657 9.06817 13.5031 8.99104 13.3791C8.91391 13.2541 8.76917 13.1763 8.61269 13.1763ZM5.59828 18.4247L5.9195 15.5799C5.92648 15.5184 5.90458 15.4569 5.85951 15.4112C5.81412 15.3652 5.75 15.3389 5.68271 15.3389L3.2171 15.3451L6.20802 10.5348L5.80428 13.3665C5.79539 13.4292 5.81634 13.4918 5.86141 13.5393C5.90648 13.5865 5.97187 13.6136 6.04011 13.6136H8.54127L5.59828 18.4247Z" fill="#D73140"/>
</svg>
